<svg xmlns="http://www.w3.org/2000/svg"  viewBox="0 0 48 48" width="48px" height="48px" clip-rule="evenodd" baseProfile="basic"><path fill-rule="evenodd" d="M2.998,22.997v2.001h42.001v-2.001	H2.998z" clip-rule="evenodd"/><path fill-rule="evenodd" d="M7.998,9.995v2.001h32.001V9.995	H7.998z" clip-rule="evenodd"/><path fill-rule="evenodd" d="M15.962,44.465	c-2.253-1.075-3.963-2.867-3.963-5.468c0-1.625-0.671-3.684-1.805-5.403c-3.755-2.505-7.195-5.747-7.195-8.597	c0-3.387,2.539-6.981,5.705-10.109c-0.393-0.865-0.705-1.836-0.705-2.891c0-3.38,3.512-7,7-7c1.671,0,3.427,0.659,4.845,1.617	c1.685-0.925,3.249-1.616,4.156-1.616c0.899,0,2.452,0.68,4.156,1.616c1.419-0.96,3.173-1.617,4.845-1.617c3.491,0,7,3.62,7,7	c0,1.055-0.315,2.025-0.708,2.891c3.164,3.129,5.708,6.728,5.708,10.109c0,2.845-3.459,6.103-7.197,8.599	c-1.136,1.719-1.803,3.776-1.803,5.401c0,2.609-1.721,4.397-3.963,5.468c-2.229,1.065-5.141,1.532-8.037,1.532	C21.105,45.997,18.191,45.53,15.962,44.465z" clip-rule="evenodd"/><path fill="#fff" fill-rule="evenodd" d="M23.999,28.997l-13,2	c1.24,1.857,2,4.127,2,6c0,4.175,5.383,6,11.003,6s11-1.825,11-6c0-1.873,0.76-4.143,2-6L23.999,28.997z" clip-rule="evenodd"/><path fill-rule="evenodd" d="M15.962,42.465	c-2.253-1.075-3.963-2.867-3.963-5.468c0-1.639-0.68-3.717-1.832-5.444c-0.405-0.608-0.043-1.433,0.679-1.544l13-2h0.305l13.003,2	c0.721,0.111,1.084,0.936,0.679,1.544c-1.152,1.727-1.831,3.805-1.831,5.444c0,2.609-1.721,4.397-3.963,5.468	c-2.229,1.065-5.141,1.532-8.037,1.532C21.105,43.997,18.191,43.53,15.962,42.465z M31.178,40.661	c1.843-0.881,2.824-2.089,2.824-3.664c0-1.58,0.472-3.359,1.268-4.988l0.131-0.245l-11.401-1.755l-11.401,1.755l0.131,0.245	c0.797,1.629,1.271,3.408,1.271,4.988c0,1.567,0.969,2.777,2.824,3.664c1.867,0.891,4.455,1.336,7.179,1.336	C26.725,41.997,29.313,41.551,31.178,40.661z" clip-rule="evenodd"/><path fill="#fff" fill-rule="evenodd" d="M24.002,35.997	c-6.427,0-20.003-8.175-20.003-13c0-8.179,17.32-19,20.003-19s20,10.821,20,19C44.002,27.822,30.429,35.997,24.002,35.997z" clip-rule="evenodd"/><path fill-rule="evenodd" d="M11.057,32.153	c-4.073-2.568-8.057-6.089-8.057-9.156c0-4.637,4.757-9.661,9.369-13.347c2.373-1.896,4.832-3.533,6.879-4.701	c1.908-1.089,3.741-1.951,4.753-1.951c1.004,0,2.821,0.847,4.755,1.951c2.045,1.168,4.504,2.805,6.877,4.701	c4.603,3.679,9.369,8.716,9.369,13.347c0,3.061-4.007,6.601-8.057,9.156c-4.237,2.673-9.439,4.844-12.943,4.844	C20.497,36.997,15.295,34.826,11.057,32.153z M35.878,30.461c4.319-2.724,7.124-5.705,7.124-7.464c0-3.539-3.901-8.015-8.617-11.784	c-2.292-1.832-4.665-3.411-6.621-4.528c-2.092-1.195-3.433-1.687-3.763-1.687c-0.335,0-1.693,0.505-3.761,1.687	c-1.957,1.117-4.331,2.696-6.623,4.528c-4.725,3.776-8.617,8.239-8.617,11.784c0,1.763,2.779,4.724,7.124,7.464	c4.156,2.621,8.956,4.536,11.879,4.536C26.923,34.997,31.722,33.082,35.878,30.461z" clip-rule="evenodd"/><path fill="#fff" fill-rule="evenodd" d="M10.999,14.997	c-0.884-1.557-2-3.207-2-5c0-2.835,3.072-6,6-6c2.235,0,4.731,1.391,6,3C18.934,11.526,15.331,13.798,10.999,14.997z" clip-rule="evenodd"/><path fill-rule="evenodd" d="M10.129,15.491	c-0.413-0.729-0.956-1.603-1.367-2.481c-0.42-0.896-0.763-1.909-0.763-3.013c0-3.38,3.512-7,7-7c2.576,0,5.349,1.563,6.784,3.381	c0.232,0.295,0.28,0.693,0.125,1.035c-2.223,4.873-6.116,7.296-10.643,8.548C10.823,16.083,10.355,15.89,10.129,15.491z M19.803,7.162L19.75,7.103c-1.188-1.169-3.093-2.107-4.751-2.107c-2.365,0-5,2.712-5,5c0,0.691,0.215,1.399,0.573,2.165	c0.184,0.392,0.389,0.771,0.609,1.155l0.281,0.487l0.779-0.247c3.187-1.143,5.781-3.019,7.472-6.213L19.803,7.162z" clip-rule="evenodd"/><path fill-rule="evenodd" d="M11.386,11.787	c-0.436-0.339-0.516-0.967-0.177-1.403c0.659-0.849,1.205-1.409,1.895-1.899c0.676-0.48,1.479-0.883,2.437-1.377	c0.489-0.253,1.093-0.06,1.347,0.431c0.253,0.489,0.06,1.093-0.431,1.347c-1.101,0.568-1.681,0.865-2.195,1.229	c-0.48,0.343-0.892,0.745-1.473,1.495C12.45,12.046,11.822,12.126,11.386,11.787z" clip-rule="evenodd"/><path fill-rule="evenodd" d="M13.999,6.995	c1.104,0,2,0.897,2,2.001s-0.896,2.001-2,2.001s-2-0.897-2-2.001S12.895,6.995,13.999,6.995z" clip-rule="evenodd"/><path fill-rule="evenodd" d="M8.322,22.734	c-0.407-0.373-0.433-1.007-0.06-1.413c0.373-0.407,1.007-0.433,1.413-0.06c3.299,3.032,9.16,5.736,14.327,5.736	c5.163,0,11.024-2.704,14.323-5.736c0.407-0.373,1.04-0.347,1.413,0.06c0.373,0.407,0.347,1.04-0.06,1.413	c-3.619,3.325-9.947,6.263-15.676,6.263C18.269,28.997,11.941,26.059,8.322,22.734z" clip-rule="evenodd"/><path fill-rule="evenodd" d="M6.999,23.997	c0-0.669,0.024-1.228,0.097-1.705c0.075-0.487,0.205-0.916,0.432-1.309c0.224-0.392,0.513-0.692,0.821-0.96	c0.153-0.133,0.319-0.264,0.488-0.396c0.165-0.127,0.361-0.276,0.552-0.421c0.437-0.337,1.065-0.255,1.401,0.184	c0.337,0.437,0.255,1.065-0.184,1.401c-0.352,0.271-0.704,0.531-0.944,0.741c-0.217,0.188-0.328,0.321-0.403,0.448	c-0.144,0.252-0.261,0.683-0.261,2.017c0,0.552-0.449,1-1,1C7.447,24.997,6.999,24.549,6.999,23.997z" clip-rule="evenodd"/><path fill="#fff" fill-rule="evenodd" d="M37.002,14.997	c0.884-1.557,2-3.207,2-5c0-2.835-3.072-6-6-6c-2.235,0-4.731,1.391-6,3C29.067,11.526,32.67,13.798,37.002,14.997z" clip-rule="evenodd"/><path fill-rule="evenodd" d="M36.734,15.961	c-4.527-1.252-8.42-3.675-10.643-8.548c-0.155-0.341-0.107-0.74,0.125-1.035c1.436-1.821,4.211-3.381,6.785-3.381	c3.491,0,7,3.62,7,7c0,1.104-0.344,2.117-0.764,3.013c-0.411,0.879-0.953,1.752-1.367,2.481	C37.645,15.89,37.177,16.083,36.734,15.961z M37.427,12.162c0.359-0.767,0.575-1.475,0.575-2.165c0-2.287-2.633-5-5-5	c-1.657,0-3.563,0.935-4.753,2.107l-0.053,0.059l0.089,0.181c1.691,3.195,4.285,5.071,7.472,6.213l0.779,0.247l0.281-0.487	C37.037,12.933,37.243,12.554,37.427,12.162z" clip-rule="evenodd"/><path fill-rule="evenodd" d="M35.211,11.61	c-0.581-0.749-0.993-1.152-1.473-1.495c-0.492-0.349-1.067-0.647-2.195-1.229c-0.491-0.253-0.684-0.857-0.431-1.347	c0.253-0.491,0.857-0.684,1.347-0.431c0.984,0.508,1.781,0.911,2.437,1.377c0.689,0.489,1.236,1.049,1.895,1.899	c0.339,0.436,0.259,1.064-0.177,1.403C36.178,12.126,35.55,12.046,35.211,11.61z" clip-rule="evenodd"/><path fill-rule="evenodd" d="M34.002,6.995	c-1.104,0-2,0.897-2,2.001s0.896,2.001,2,2.001s2-0.897,2-2.001S35.106,6.995,34.002,6.995z" clip-rule="evenodd"/><path fill-rule="evenodd" d="M39.002,23.997	c0-1.324-0.112-1.753-0.263-2.017c-0.075-0.127-0.185-0.26-0.403-0.448c-0.109-0.096-0.239-0.2-0.399-0.324	c-0.165-0.128-0.333-0.253-0.545-0.417c-0.439-0.336-0.521-0.964-0.184-1.401c0.336-0.439,0.964-0.521,1.401-0.184	c0.443,0.339,0.755,0.569,1.04,0.817c0.308,0.268,0.597,0.568,0.821,0.96c0.227,0.393,0.357,0.823,0.432,1.309	c0.073,0.477,0.099,1.036,0.099,1.705c0,0.552-0.449,1-1,1C39.45,24.997,39.002,24.549,39.002,23.997z" clip-rule="evenodd"/></svg>